<svg xmlns="http://www.w3.org/2000/svg" viewBox="0 0 1600 1000" role="img" aria-label="Original angular deep-space cockpit frame">
  <defs>
    <linearGradient id="metal" x1="0" y1="0" x2="1" y2="1"><stop offset="0" stop-color="#07111f"/><stop offset=".5" stop-color="#111927"/><stop offset="1" stop-color="#00040a"/></linearGradient>
    <filter id="glow"><feGaussianBlur stdDeviation="3" result="b"/><feMerge><feMergeNode in="b"/><feMergeNode in="SourceGraphic"/></feMerge></filter>
  </defs>
  <rect width="1600" height="1000" fill="none"/>
  <path d="M0 0h1600v1000H0z" fill="none"/>
  <path d="M0 0h330l115 120h710L1275 0h325v115l-180 100v570l180 95v120h-370l-92-118H462L365 1000H0V870l168-97V222L0 115z" fill="url(#metal)" opacity=".72"/>
  <path d="M430 122h740M178 225v548M1424 225v548M464 882h672" stroke="#5ec7ff" stroke-width="4" opacity=".52" filter="url(#glow)"/>
  <path d="M35 38h230l86 96M1565 38h-230l-88 96M43 935h250l83-96M1557 935h-255l-80-96" stroke="#20364d" stroke-width="28" stroke-linecap="round"/>
  <g fill="#ff3b30" filter="url(#glow)" opacity=".84"><rect x="89" y="834" width="12" height="48" rx="3"/><rect x="118" y="845" width="12" height="37" rx="3"/><rect x="1482" y="834" width="12" height="48" rx="3"/><rect x="1511" y="845" width="12" height="37" rx="3"/></g>
</svg>